<svg width="642" height="580" viewBox="0 0 642 580" fill="none" xmlns="http://www.w3.org/2000/svg">
<g clip-path="url(#clip0_6_3)">
<path d="M84 45C84 20.1472 104.147 0 129 0H514C538.853 0 559 20.1472 559 45V430C559 454.853 538.853 475 514 475H129C104.147 475 84 454.853 84 430V45Z" fill="#B0C4D3"/>
<path d="M132 63C132 53.0589 140.059 45 150 45H499C508.941 45 517 53.0589 517 63V412C517 421.941 508.941 430 499 430H150C140.059 430 132 421.941 132 412V63Z" fill="#01223B"/>
<mask id="mask0_6_3" style="mask-type:alpha" maskUnits="userSpaceOnUse" x="84" y="194" width="523" height="178">
<path d="M84 344.5V234V194H118.5L559 208.5V315L606.5 364.5L517 371.5V345L514 265.5L478 254L131 234V370.5L84 344.5Z" fill="white"/>
</mask>
<g mask="url(#mask0_6_3)">
<path d="M452.137 187.613C452.137 256.987 393.536 313.225 321.248 313.225C248.96 313.225 190.358 256.987 190.358 187.613C190.358 118.239 248.96 62 321.248 62C393.536 62 452.137 118.239 452.137 187.613Z" fill="white"/>
<path d="M162.881 186.611C166.01 142.936 181.293 108.6 213.838 76.5128C142.234 48.3018 82.9488 80.0162 29.9935 162.59C25.9843 169.562 26.0201 173.278 29.9935 179.606L156.886 313.726C160.451 317.24 164.38 318.23 168.377 318.23C172.373 318.23 185.862 312.725 185.862 302.215V263.18C167.372 237.55 162.565 220.684 162.881 186.611Z" fill="white"/>
<path d="M479.116 186.388C475.987 142.639 460.704 108.245 428.158 76.1029C499.763 47.844 559.05 79.6122 612.006 162.326C616.016 169.31 615.98 173.032 612.006 179.371L485.111 313.718C481.546 317.239 477.617 318.23 473.62 318.23C469.624 318.23 456.135 312.716 456.135 302.188V263.087C474.625 237.414 479.432 220.518 479.116 186.388Z" fill="white"/>
<path d="M178.368 377.783C171.874 384.788 184.363 404.808 199.351 391.795C214.338 378.783 221.832 363.771 228.826 344.754C235.82 322.234 239.817 297.711 238.817 285.2C237.818 272.688 211.341 240.159 211.341 255.673C211.341 271.188 214.438 302.848 207.344 326.738C199.098 354.503 184.863 370.777 178.368 377.783Z" fill="white"/>
<path d="M464.378 377.912C470.829 384.947 458.422 405.05 443.534 391.983C428.646 378.917 421.202 363.842 414.254 344.746C407.306 322.133 403.336 297.508 404.329 284.945C405.321 272.381 431.624 239.717 431.624 255.295C431.624 270.874 428.546 302.666 435.594 326.655C443.785 354.536 457.926 370.878 464.378 377.912Z" fill="white"/>
<path d="M264.296 301.215C264.296 288.203 266.294 282.698 266.294 282.698L373.704 285.2L378.2 300.714L377.201 380.286C377.923 393.907 377.174 401.48 372.704 414.817C365.676 431.843 359.984 440.305 345.727 452.851C327.572 466.597 315.259 469.738 290.274 468.865C270.682 466.128 261.498 461.092 247.31 447.846C237.456 436.631 232.896 429.308 229.825 410.813C229.658 402.471 229.791 397.283 232.822 388.793C237.895 380.424 241.315 377.094 247.31 375.281C259.369 371.635 266.809 376.531 272.289 383.789C276.525 388.038 274.223 397.107 275.786 404.808C277.081 411.182 279.372 415.217 284.779 418.82C292.251 423.8 300.262 422.997 307.759 418.82C315.256 414.643 317.785 410.688 320.249 403.306C322.663 396.075 320.403 388.542 319.749 383.789C319.095 379.036 316.624 373.71 313.754 370.277C310.884 366.843 284.234 343.25 277.285 335.746C270.336 328.241 264.296 314.226 264.296 301.215Z" fill="white"/>
</g>
<path d="M452.496 160.5C452.496 229.812 393.845 286 321.496 286C249.147 286 190.496 229.812 190.496 160.5C190.496 91.1883 249.147 35 321.496 35C393.845 35 452.496 91.1883 452.496 160.5Z" fill="white"/>
<path d="M162.996 159.5C166.127 115.863 181.423 81.5582 213.996 49.4997C142.332 21.314 82.996 53 29.996 135.5C25.9835 142.466 26.0192 146.178 29.996 152.5L156.996 286.5C160.564 290.011 164.496 291 168.496 291C172.496 291 185.996 285.5 185.996 275V236C167.49 210.393 162.68 193.541 162.996 159.5Z" fill="white"/>
<path d="M479.497 159.277C476.366 115.566 461.07 81.203 428.496 49.0902C500.162 20.8567 559.499 52.5964 612.5 135.236C616.513 142.214 616.477 145.933 612.5 152.265L485.497 286.492C481.929 290.01 477.997 291 473.997 291C469.997 291 456.497 285.491 456.497 274.973V235.907C475.003 210.256 479.814 193.376 479.497 159.277Z" fill="white"/>
<path d="M178.496 350.499C171.996 357.499 184.496 377.5 199.496 364.499C214.496 351.499 221.996 336.5 228.996 317.5C235.996 295 239.996 270.5 238.996 258C237.996 245.499 211.496 212.999 211.496 228.5C211.496 244 214.597 275.632 207.496 299.5C199.244 327.241 184.996 343.5 178.496 350.499Z" fill="white"/>
<path d="M464.747 350.629C471.204 357.657 458.786 377.742 443.886 364.687C428.985 351.633 421.535 336.571 414.581 317.492C407.627 294.899 403.654 270.297 404.647 257.745C405.641 245.192 431.965 212.557 431.965 228.122C431.965 243.687 428.885 275.45 435.939 299.418C444.136 327.274 458.29 343.601 464.747 350.629Z" fill="white"/>
<path d="M264.496 274C264.496 261 266.496 255.5 266.496 255.5L373.996 258L378.496 273.5L377.496 353C378.219 366.609 377.47 374.176 372.996 387.5C365.961 404.511 360.265 412.966 345.996 425.5C327.826 439.234 315.503 442.373 290.496 441.5C270.888 438.765 261.696 433.734 247.496 420.5C237.634 409.295 233.07 401.978 229.996 383.5C229.829 375.165 229.962 369.982 232.996 361.5C238.073 353.139 241.496 349.811 247.496 348C259.565 344.357 267.011 349.249 272.496 356.5C276.736 360.745 274.431 369.807 275.996 377.5C277.292 383.869 279.585 387.9 284.996 391.5C292.474 396.475 300.493 395.673 307.996 391.5C315.499 387.327 318.03 383.375 320.496 376C322.912 368.776 320.651 361.249 319.996 356.5C319.341 351.751 316.869 346.431 313.996 343C311.124 339.569 284.451 315.998 277.496 308.5C270.542 301.002 264.496 287 264.496 274Z" fill="white"/>
<path fill-rule="evenodd" clip-rule="evenodd" d="M321.496 62C262.955 62 217.496 107.18 217.496 160.5C217.496 174.433 220.6 187.81 226.23 199.97C231.28 202.12 235.23 205.244 237.663 207.362C240.409 209.753 242.968 212.417 245.231 215.016C248.691 218.988 252.108 223.554 255.1 228.228L386.443 231.282C389.831 225.485 393.994 219.675 398.224 214.765C400.472 212.157 403.014 209.481 405.746 207.077C408.113 204.993 411.948 201.919 416.864 199.748C422.43 187.647 425.496 174.348 425.496 160.5C425.496 107.18 380.037 62 321.496 62ZM239.128 30.371C263.229 16.1479 291.495 8 321.496 8C351.246 8 379.289 16.0116 403.256 30.014L418.599 23.9694C460.708 7.38035 501.372 7.92795 539.269 26.2869C575.975 44.0692 607.387 77.2509 635.227 120.66L635.58 121.21L635.906 121.776C638.669 126.582 642.513 134.284 642.496 144.039C642.479 154.105 638.388 161.811 635.365 166.625L633.946 168.884L504.787 305.391L504.452 305.72C494.608 315.424 483.164 318 473.997 318C473.85 318 473.704 317.999 473.558 317.997C477.877 324.849 482.033 329.536 484.63 332.362C493.869 342.42 494.292 354.702 492.864 362.495C491.378 370.6 487.363 378.184 481.66 384.035C475.809 390.038 466.938 395.394 455.679 395.953C444.104 396.528 433.917 391.85 426.093 384.996C417.087 377.105 410.232 368.682 404.728 359.91C404.818 372.231 403.271 382.158 398.592 396.094L398.299 396.967L397.947 397.818C394.069 407.196 390 415.605 384.289 423.719C378.547 431.876 371.879 438.702 363.815 445.785L363.069 446.441L362.277 447.039C351.577 455.127 340.929 461.355 328.142 464.963C315.692 468.476 303.102 468.956 289.555 468.484L288.154 468.435L286.766 468.241C275.277 466.639 264.962 464.109 254.917 459.099C245.013 454.159 236.96 447.589 229.088 440.252L228.111 439.341L227.228 438.339C221.825 432.2 216.368 425.475 212.03 416.761C208.35 409.368 205.988 401.608 204.264 392.9C199.168 394.956 193.585 396.04 187.647 395.748C176.46 395.198 167.594 389.93 161.7 383.949C155.963 378.125 151.888 370.539 150.378 362.387C148.921 354.523 149.375 342.18 158.712 332.126C161.311 329.326 165.45 324.708 169.757 317.974C169.341 317.991 168.92 318 168.496 318C159.342 318 147.903 315.433 138.058 305.744L137.723 305.414L8.56321 169.136L7.14206 166.877C4.118 162.07 0.017454 154.362 5.51629e-05 144.288C-0.0168077 134.525 3.83607 126.821 6.60007 122.023L6.92639 121.457L7.27974 120.906C35.1239 77.5642 66.538 44.4373 103.241 26.6862C141.129 8.36244 181.779 7.8157 223.878 24.3733L239.128 30.371ZM165.264 66.4291C151.613 66.3142 138.916 69.4167 126.752 75.2993C104.223 86.1952 81.1511 107.809 57.7155 142.497L158.996 249.36V244.461C151.28 232.885 145.402 221.512 141.562 208.622C136.973 193.22 135.828 177.421 135.997 159.249L136.005 158.407L136.065 157.567C138.524 123.311 147.754 93.5563 165.264 66.4291ZM347.871 377.483C348.862 371.643 348.652 366.44 348.258 362.577C347.98 359.856 347.566 357.444 347.267 355.772C347.132 355.022 347.035 354.489 346.963 354.093C346.834 353.385 346.785 353.114 346.743 352.813C345.365 342.818 340.682 332.814 334.698 325.667C332.677 323.253 329.005 319.83 326.645 317.63L326.472 317.469C325.014 316.109 323.375 314.595 321.643 313C331.663 312.991 341.489 312.073 351.031 310.324L350.487 353.546L350.534 354.431C351.07 364.535 350.704 368.759 347.871 377.483ZM52.9616 149.789C52.9589 149.791 52.9814 149.738 53.037 149.627C52.9921 149.733 52.9642 149.788 52.9616 149.789ZM483.497 244.357V249.322L584.803 142.253C561.351 107.471 538.264 85.8033 515.726 74.8845C503.553 68.9876 490.846 65.8805 477.183 66.0029C494.725 93.1923 503.968 123.013 506.428 157.347L506.488 158.186L506.496 159.026C506.665 177.225 505.52 193.041 500.935 208.457C497.095 221.367 491.217 232.758 483.497 244.357ZM589.526 149.514C589.524 149.512 589.496 149.457 589.452 149.352C589.507 149.462 589.529 149.515 589.526 149.514Z" fill="#01223B"/>
<path d="M432.68 369H215.856C181.869 369 141 395.673 141 441.275C141 486.877 141 476.982 141 499.783C141 522.583 162.947 553.823 194.346 556.57C225.744 559.316 235.215 518.712 235.215 518.712C248.547 495.384 258.5 484.858 286.84 476.982C313.554 472.076 328.529 472.22 355.243 476.982C390.041 487.754 404.107 498.814 415.471 531.188C424.305 549.094 431.282 555.929 450.748 557C483.807 550.574 506.675 538.071 506.675 501.073V448.158C506.675 402.126 479.142 369 432.68 369Z" fill="#B0C4D3"/>
<path fill-rule="evenodd" clip-rule="evenodd" d="M452.335 580.122L449.484 579.965C437.277 579.293 425.44 576.627 415.06 568.607C405.368 561.118 399.512 550.823 394.845 541.363L394.23 540.117L393.77 538.806C388.788 524.615 384.157 517.825 378.965 513.264C373.548 508.505 365.423 504.305 349.792 499.375C326.927 495.38 314.763 495.307 292.029 499.415C280.385 502.738 274.452 506.05 270.281 509.589C266.081 513.154 262.162 518.198 256.588 527.699C256.158 529.124 255.583 530.9 254.842 532.923C253.084 537.723 250.236 544.353 245.913 551.091C237.465 564.259 220.301 581.928 192.341 579.482C169.364 577.472 150.828 565.153 138.42 550.647C126.28 536.453 118 517.826 118 499.783C118 488.265 118 485.09 118 478.89C118 472.816 118 463.84 118 441.275C118 379.723 172.678 346 215.856 346H432.68C461.708 346 486.658 356.534 504.161 375.891C521.414 394.972 529.675 420.648 529.675 448.158V501.073C529.675 524.9 521.996 544.139 506.19 557.867C491.648 570.496 472.719 576.16 455.137 579.577L452.335 580.122ZM235.215 518.712C248.547 495.384 258.5 484.858 286.84 476.982C313.554 472.076 328.529 472.22 355.243 476.982C390.041 487.754 404.107 498.814 415.471 531.188C424.305 549.094 431.282 555.929 450.748 557C483.807 550.574 506.675 538.071 506.675 501.073V448.158C506.675 402.126 479.142 369 432.68 369H215.856C181.869 369 141 395.673 141 441.275C141 463.832 141 472.81 141 478.883C141 485.088 141 488.26 141 499.783C141 522.583 162.947 553.823 194.346 556.57C225.744 559.316 235.215 518.712 235.215 518.712Z" fill="#01223B"/>
<path d="M449.888 414.172C449.888 422.012 443.532 428.368 435.691 428.368C427.85 428.368 421.494 422.012 421.494 414.172C421.494 406.331 427.85 399.975 435.691 399.975C443.532 399.975 449.888 406.331 449.888 414.172Z" fill="#04253D"/>
<path d="M449.888 470.098C449.888 477.939 443.532 484.295 435.691 484.295C427.85 484.295 421.494 477.939 421.494 470.098C421.494 462.258 427.85 455.902 435.691 455.902C443.532 455.902 449.888 462.258 449.888 470.098Z" fill="#04253D"/>
<path d="M478.282 441.705C478.282 449.546 471.925 455.902 464.085 455.902C456.244 455.902 449.888 449.546 449.888 441.705C449.888 433.864 456.244 427.508 464.085 427.508C471.925 427.508 478.282 433.864 478.282 441.705Z" fill="#04253D"/>
<path d="M421.494 441.705C421.494 449.546 415.138 455.902 407.298 455.902C399.457 455.902 393.101 449.546 393.101 441.705C393.101 433.864 399.457 427.508 407.298 427.508C415.138 427.508 421.494 433.864 421.494 441.705Z" fill="#04253D"/>
<path d="M194.346 412.451C194.346 405.085 200.316 399.114 207.682 399.114C215.047 399.114 221.018 405.085 221.018 412.451V470.959C221.018 478.324 215.047 484.295 207.682 484.295C200.316 484.295 194.346 478.324 194.346 470.959V412.451Z" fill="#04253D"/>
<path d="M178.428 455.041C171.062 455.041 165.092 449.07 165.092 441.705C165.092 434.339 171.062 428.368 178.428 428.368H236.936C244.301 428.368 250.272 434.339 250.272 441.705C250.272 449.07 244.301 455.041 236.936 455.041H178.428Z" fill="#04253D"/>
<path d="M452.496 160.5C452.496 229.812 393.845 286 321.496 286C249.147 286 190.496 229.812 190.496 160.5C190.496 91.1883 249.147 35 321.496 35C393.845 35 452.496 91.1883 452.496 160.5Z" fill="white"/>
<path d="M162.996 159.5C166.127 115.863 181.423 81.5582 213.996 49.4997C142.332 21.314 82.996 53 29.996 135.5C25.9835 142.466 26.0192 146.178 29.996 152.5L156.996 286.5C160.564 290.011 164.496 291 168.496 291C172.496 291 185.996 285.5 185.996 275V236C167.49 210.393 162.68 193.541 162.996 159.5Z" fill="white"/>
<mask id="mask1_6_3" style="mask-type:alpha" maskUnits="userSpaceOnUse" x="27" y="39" width="187" height="252">
<path d="M162.996 159.5C166.127 115.863 181.423 81.5582 213.996 49.4997C142.332 21.314 82.996 53 29.996 135.5C25.9835 142.466 26.0192 146.178 29.996 152.5L156.996 286.5C160.564 290.011 164.496 291 168.496 291C172.496 291 185.996 285.5 185.996 275V236C167.49 210.393 162.68 193.541 162.996 159.5Z" fill="white"/>
</mask>
<g mask="url(#mask1_6_3)">
<path d="M235.313 161.277C238.579 117.566 254.529 83.2031 288.496 51.0902C213.764 22.8567 151.889 54.5964 96.6204 137.236C92.436 144.214 92.4733 147.933 96.6204 154.265L229.056 288.492C232.777 292.01 236.877 293 241.049 293C245.22 293 259.298 287.491 259.298 276.973V237.907C240 212.256 234.983 195.376 235.313 161.277Z" fill="#98B7CC"/>
</g>
<path d="M479.497 159.073C476.366 115.437 461.07 81.1316 428.496 49.0731C500.162 20.8874 559.499 52.5734 612.5 135.073C616.513 142.039 616.477 145.752 612.5 152.073L485.497 286.073C481.929 289.584 477.997 290.573 473.997 290.573C469.997 290.573 456.497 285.073 456.497 274.573V235.573C475.003 209.966 479.814 193.115 479.497 159.073Z" fill="white"/>
<mask id="mask2_6_3" style="mask-type:alpha" maskUnits="userSpaceOnUse" x="428" y="39" width="188" height="252">
<path d="M479.497 159.073C476.366 115.437 461.07 81.1316 428.496 49.0731C500.162 20.8874 559.499 52.5734 612.5 135.073C616.513 142.039 616.477 145.752 612.5 152.073L485.497 286.073C481.929 289.584 477.997 290.573 473.997 290.573C469.997 290.573 456.497 285.073 456.497 274.573V235.573C475.003 209.966 479.814 193.115 479.497 159.073Z" fill="white"/>
</mask>
<g mask="url(#mask2_6_3)">
<path d="M407.179 160.85C403.913 117.14 387.963 82.7764 353.994 50.6636C428.728 22.43 490.605 54.1698 545.874 136.81C550.059 143.787 550.021 147.506 545.874 153.839L413.435 288.066C409.715 291.583 405.614 292.573 401.443 292.573C397.272 292.573 383.194 287.064 383.194 276.546V237.48C402.492 211.83 407.508 194.95 407.179 160.85Z" fill="#98B7CC"/>
</g>
<path d="M178.496 350.499C171.996 357.499 184.496 377.5 199.496 364.499C214.496 351.499 221.996 336.5 228.996 317.5C235.996 295 239.996 270.5 238.996 258C237.996 245.499 211.496 212.999 211.496 228.5C211.496 244 214.597 275.632 207.496 299.5C199.244 327.241 184.996 343.5 178.496 350.499Z" fill="white"/>
<path d="M464.747 350.629C471.204 357.657 458.786 377.742 443.886 364.687C428.985 351.633 421.535 336.571 414.581 317.492C407.627 294.899 403.654 270.297 404.647 257.745C405.641 245.192 431.965 212.557 431.965 228.122C431.965 243.687 428.885 275.45 435.939 299.418C444.136 327.274 458.29 343.601 464.747 350.629Z" fill="white"/>
<path d="M264.496 274C264.496 261 266.496 255.5 266.496 255.5L373.996 258L378.496 273.5L377.496 353C378.219 366.609 377.47 374.176 372.996 387.5C365.961 404.511 360.265 412.966 345.996 425.5C327.826 439.234 315.503 442.373 290.496 441.5C270.888 438.765 261.696 433.734 247.496 420.5C237.634 409.295 233.07 401.978 229.996 383.5C229.829 375.165 229.962 369.982 232.996 361.5C238.073 353.139 241.496 349.811 247.496 348C259.565 344.357 267.011 349.249 272.496 356.5C276.736 360.745 274.431 369.807 275.996 377.5C277.292 383.869 279.585 387.9 284.996 391.5C292.474 396.475 300.493 395.673 307.996 391.5C315.499 387.327 318.03 383.375 320.496 376C322.912 368.776 320.651 361.249 319.996 356.5C319.341 351.751 316.869 346.431 313.996 343C311.124 339.569 284.451 315.998 277.496 308.5C270.542 301.002 264.496 287 264.496 274Z" fill="white"/>
<path d="M278.496 165.5C278.496 177.926 268.423 188 255.996 188C243.57 188 233.496 177.926 233.496 165.5C233.496 153.074 243.57 143 255.996 143C268.423 143 278.496 153.074 278.496 165.5Z" fill="#04253D"/>
<path d="M408.496 165.5C408.496 177.926 398.423 188 385.996 188C373.57 188 363.496 177.926 363.496 165.5C363.496 153.074 373.57 143 385.996 143C398.423 143 408.496 153.074 408.496 165.5Z" fill="#04253D"/>
</g>
<defs>
<clipPath id="clip0_6_3">
<rect width="642" height="580" fill="white"/>
</clipPath>
</defs>
</svg>
