<svg width="750" height="750" viewBox="0 0 750 750" fill="none" xmlns="http://www.w3.org/2000/svg">
<g clip-path="url(#clip0_6_384)">
<rect x="14" y="14" width="722" height="722" rx="86" fill="#01223B" stroke="white" stroke-width="28"/>
<path d="M138 160C138 135.147 158.147 115 183 115H568C592.853 115 613 135.147 613 160V545C613 569.853 592.853 590 568 590H183C158.147 590 138 569.853 138 545V160Z" fill="#B0C4D3"/>
<path d="M186 178C186 168.059 194.059 160 204 160H553C562.941 160 571 168.059 571 178V527C571 536.941 562.941 545 553 545H204C194.059 545 186 536.941 186 527V178Z" fill="#01223B"/>
<mask id="mask0_6_384" style="mask-type:alpha" maskUnits="userSpaceOnUse" x="138" y="309" width="523" height="178">
<path d="M138 459.5V349V309H172.5L613 323.5V430L660.5 479.5L571 486.5V460L568 380.5L532 369L185 349V485.5L138 459.5Z" fill="white"/>
</mask>
<g mask="url(#mask0_6_384)">
<path d="M506.137 302.613C506.137 371.987 447.536 428.225 375.248 428.225C302.96 428.225 244.358 371.987 244.358 302.613C244.358 233.239 302.96 177 375.248 177C447.536 177 506.137 233.239 506.137 302.613Z" fill="white"/>
<path d="M216.881 301.611C220.01 257.936 235.293 223.6 267.838 191.513C196.234 163.302 136.949 195.016 83.9935 277.59C79.9843 284.562 80.0201 288.278 83.9935 294.606L210.886 428.726C214.451 432.24 218.38 433.23 222.377 433.23C226.373 433.23 239.862 427.725 239.862 417.215V378.18C221.372 352.55 216.565 335.684 216.881 301.611Z" fill="white"/>
<path d="M533.116 301.388C529.987 257.639 514.704 223.245 482.158 191.103C553.763 162.844 613.05 194.612 666.006 277.326C670.016 284.31 669.98 288.032 666.006 294.371L539.111 428.718C535.546 432.239 531.617 433.23 527.62 433.23C523.624 433.23 510.135 427.716 510.135 417.188V378.087C528.625 352.414 533.432 335.518 533.116 301.388Z" fill="white"/>
<path d="M232.368 492.783C225.874 499.788 238.363 519.808 253.351 506.795C268.338 493.783 275.832 478.771 282.826 459.754C289.82 437.234 293.817 412.711 292.817 400.2C291.818 387.688 265.341 355.159 265.341 370.673C265.341 386.188 268.438 417.848 261.344 441.738C253.098 469.503 238.863 485.777 232.368 492.783Z" fill="white"/>
<path d="M518.378 492.912C524.829 499.947 512.422 520.05 497.534 506.983C482.646 493.917 475.202 478.842 468.254 459.746C461.306 437.133 457.336 412.508 458.329 399.945C459.321 387.381 485.624 354.717 485.624 370.295C485.624 385.874 482.546 417.666 489.594 441.655C497.785 469.536 511.926 485.878 518.378 492.912Z" fill="white"/>
<path d="M318.296 416.215C318.296 403.203 320.294 397.698 320.294 397.698L427.704 400.2L432.2 415.714L431.201 495.286C431.923 508.907 431.174 516.48 426.704 529.817C419.676 546.843 413.984 555.305 399.727 567.851C381.572 581.597 369.259 584.738 344.274 583.865C324.682 581.128 315.498 576.092 301.31 562.846C291.456 551.631 286.896 544.308 283.825 525.813C283.658 517.471 283.791 512.283 286.822 503.793C291.895 495.424 295.315 492.094 301.31 490.281C313.369 486.635 320.809 491.531 326.289 498.789C330.525 503.038 328.223 512.107 329.786 519.808C331.081 526.182 333.372 530.217 338.779 533.82C346.251 538.8 354.262 537.997 361.759 533.82C369.256 529.643 371.785 525.688 374.249 518.306C376.663 511.075 374.403 503.542 373.749 498.789C373.095 494.036 370.624 488.71 367.754 485.277C364.884 481.843 338.234 458.25 331.285 450.746C324.336 443.241 318.296 429.226 318.296 416.215Z" fill="white"/>
</g>
<path d="M506.496 275.5C506.496 344.812 447.845 401 375.496 401C303.147 401 244.496 344.812 244.496 275.5C244.496 206.188 303.147 150 375.496 150C447.845 150 506.496 206.188 506.496 275.5Z" fill="white"/>
<path d="M216.996 274.5C220.127 230.863 235.423 196.558 267.996 164.5C196.332 136.314 136.996 168 83.996 250.5C79.9835 257.466 80.0192 261.178 83.996 267.5L210.996 401.5C214.564 405.011 218.496 406 222.496 406C226.496 406 239.996 400.5 239.996 390V351C221.49 325.393 216.68 308.541 216.996 274.5Z" fill="white"/>
<path d="M533.497 274.277C530.366 230.566 515.07 196.203 482.496 164.09C554.162 135.857 613.499 167.596 666.5 250.236C670.513 257.214 670.477 260.933 666.5 267.265L539.497 401.492C535.929 405.01 531.997 406 527.997 406C523.997 406 510.497 400.491 510.497 389.973V350.907C529.003 325.256 533.814 308.376 533.497 274.277Z" fill="white"/>
<path d="M232.496 465.499C225.996 472.499 238.496 492.5 253.496 479.499C268.496 466.499 275.996 451.5 282.996 432.5C289.996 410 293.996 385.5 292.996 373C291.996 360.499 265.496 327.999 265.496 343.5C265.496 359 268.597 390.632 261.496 414.5C253.244 442.241 238.996 458.5 232.496 465.499Z" fill="white"/>
<path d="M518.747 465.629C525.204 472.657 512.786 492.742 497.886 479.687C482.985 466.633 475.535 451.571 468.581 432.492C461.627 409.899 457.654 385.297 458.647 372.745C459.641 360.192 485.965 327.557 485.965 343.122C485.965 358.687 482.885 390.45 489.939 414.418C498.136 442.274 512.29 458.601 518.747 465.629Z" fill="white"/>
<path d="M318.496 389C318.496 376 320.496 370.5 320.496 370.5L427.996 373L432.496 388.5L431.496 468C432.219 481.609 431.47 489.176 426.996 502.5C419.961 519.511 414.265 527.966 399.996 540.5C381.826 554.234 369.503 557.373 344.496 556.5C324.888 553.765 315.696 548.734 301.496 535.5C291.634 524.295 287.07 516.978 283.996 498.5C283.829 490.165 283.962 484.982 286.996 476.5C292.073 468.139 295.496 464.811 301.496 463C313.565 459.357 321.011 464.249 326.496 471.5C330.736 475.745 328.431 484.807 329.996 492.5C331.292 498.869 333.585 502.9 338.996 506.5C346.474 511.475 354.493 510.673 361.996 506.5C369.499 502.327 372.03 498.375 374.496 491C376.912 483.776 374.651 476.249 373.996 471.5C373.341 466.751 370.869 461.431 367.996 458C365.124 454.569 338.451 430.998 331.496 423.5C324.542 416.002 318.496 402 318.496 389Z" fill="white"/>
<path fill-rule="evenodd" clip-rule="evenodd" d="M375.496 177C316.955 177 271.496 222.18 271.496 275.5C271.496 289.433 274.6 302.81 280.23 314.97C285.28 317.12 289.23 320.244 291.663 322.362C294.409 324.753 296.968 327.417 299.231 330.016C302.691 333.988 306.108 338.554 309.1 343.228L440.443 346.282C443.831 340.485 447.994 334.675 452.224 329.765C454.472 327.157 457.014 324.481 459.746 322.077C462.113 319.993 465.948 316.919 470.864 314.748C476.43 302.647 479.496 289.348 479.496 275.5C479.496 222.18 434.037 177 375.496 177ZM293.128 145.371C317.229 131.148 345.495 123 375.496 123C405.246 123 433.289 131.012 457.256 145.014L472.599 138.969C514.708 122.38 555.372 122.928 593.269 141.287C629.975 159.069 661.387 192.251 689.227 235.66L689.58 236.21L689.906 236.776C692.669 241.582 696.513 249.284 696.496 259.039C696.479 269.105 692.388 276.811 689.365 281.625L687.946 283.884L558.787 420.391L558.452 420.72C548.608 430.424 537.164 433 527.997 433C527.85 433 527.704 432.999 527.558 432.997C531.877 439.849 536.033 444.536 538.63 447.362C547.869 457.42 548.292 469.702 546.864 477.495C545.378 485.6 541.363 493.184 535.66 499.035C529.809 505.038 520.938 510.394 509.679 510.953C498.104 511.528 487.917 506.85 480.093 499.996C471.087 492.105 464.232 483.682 458.728 474.91C458.818 487.231 457.271 497.158 452.592 511.094L452.299 511.967L451.947 512.818C448.069 522.196 444 530.605 438.289 538.719C432.547 546.876 425.879 553.702 417.815 560.785L417.069 561.441L416.277 562.039C405.577 570.127 394.929 576.355 382.142 579.963C369.692 583.476 357.102 583.956 343.555 583.484L342.154 583.435L340.766 583.241C329.277 581.639 318.962 579.109 308.917 574.099C299.013 569.159 290.96 562.589 283.088 555.252L282.111 554.341L281.228 553.339C275.825 547.2 270.368 540.475 266.03 531.761C262.35 524.368 259.988 516.608 258.264 507.9C253.168 509.956 247.585 511.04 241.647 510.748C230.46 510.198 221.594 504.93 215.7 498.949C209.963 493.125 205.888 485.539 204.378 477.387C202.921 469.523 203.375 457.18 212.712 447.126C215.311 444.326 219.45 439.708 223.757 432.974C223.341 432.991 222.92 433 222.496 433C213.342 433 201.903 430.433 192.058 420.744L191.723 420.414L62.5632 284.136L61.1421 281.877C58.118 277.07 54.0175 269.362 54.0001 259.288C53.9832 249.525 57.8361 241.821 60.6001 237.023L60.9264 236.457L61.2797 235.906C89.1239 192.564 120.538 159.437 157.241 141.686C195.129 123.362 235.779 122.816 277.878 139.373L293.128 145.371ZM219.264 181.429C205.613 181.314 192.916 184.417 180.752 190.299C158.223 201.195 135.151 222.809 111.715 257.497L212.996 364.36V359.461C205.28 347.885 199.402 336.512 195.562 323.622C190.973 308.22 189.828 292.421 189.997 274.249L190.005 273.407L190.065 272.567C192.524 238.311 201.754 208.556 219.264 181.429ZM401.871 492.483C402.862 486.643 402.652 481.44 402.258 477.577C401.98 474.856 401.566 472.444 401.267 470.772C401.132 470.022 401.035 469.489 400.963 469.093C400.834 468.385 400.785 468.114 400.743 467.813C399.365 457.818 394.682 447.814 388.698 440.667C386.677 438.253 383.005 434.83 380.645 432.63L380.472 432.469C379.014 431.109 377.375 429.595 375.643 428C385.663 427.991 395.489 427.073 405.031 425.324L404.487 468.546L404.534 469.431C405.07 479.535 404.704 483.759 401.871 492.483ZM106.962 264.789C106.959 264.791 106.981 264.738 107.037 264.627C106.992 264.733 106.964 264.788 106.962 264.789ZM537.497 359.357V364.322L638.803 257.253C615.351 222.471 592.264 200.803 569.726 189.885C557.553 183.988 544.846 180.88 531.183 181.003C548.725 208.192 557.968 238.013 560.428 272.347L560.488 273.186L560.496 274.026C560.665 292.225 559.52 308.041 554.935 323.457C551.095 336.367 545.217 347.758 537.497 359.357ZM643.526 264.514C643.524 264.512 643.496 264.457 643.452 264.352C643.507 264.462 643.529 264.515 643.526 264.514Z" fill="#01223B"/>
<path d="M486.68 484H269.856C235.869 484 195 510.673 195 556.275C195 601.877 195 591.982 195 614.783C195 637.583 216.947 668.823 248.346 671.57C279.744 674.316 289.215 633.712 289.215 633.712C302.547 610.384 312.5 599.858 340.84 591.982C367.554 587.076 382.529 587.22 409.243 591.982C444.041 602.754 458.107 613.814 469.471 646.188C478.305 664.094 485.282 670.929 504.748 672C537.807 665.574 560.675 653.071 560.675 616.073V563.158C560.675 517.126 533.142 484 486.68 484Z" fill="#B0C4D3"/>
<path fill-rule="evenodd" clip-rule="evenodd" d="M506.335 695.122L503.484 694.965C491.277 694.293 479.44 691.627 469.06 683.607C459.368 676.118 453.512 665.823 448.845 656.363L448.23 655.117L447.77 653.806C442.788 639.615 438.157 632.825 432.965 628.264C427.548 623.505 419.423 619.305 403.792 614.375C380.927 610.38 368.763 610.307 346.029 614.415C334.385 617.738 328.452 621.05 324.281 624.589C320.081 628.154 316.162 633.198 310.588 642.699C310.158 644.124 309.583 645.9 308.842 647.923C307.084 652.723 304.236 659.353 299.913 666.091C291.465 679.259 274.301 696.928 246.341 694.482C223.364 692.472 204.828 680.153 192.42 665.647C180.28 651.453 172 632.826 172 614.783C172 603.265 172 600.09 172 593.89C172 587.816 172 578.84 172 556.275C172 494.723 226.678 461 269.856 461H486.68C515.708 461 540.658 471.534 558.161 490.891C575.414 509.972 583.675 535.648 583.675 563.158V616.073C583.675 639.9 575.996 659.139 560.19 672.867C545.648 685.496 526.719 691.16 509.137 694.577L506.335 695.122ZM289.215 633.712C302.547 610.384 312.5 599.858 340.84 591.982C367.554 587.076 382.529 587.22 409.243 591.982C444.041 602.754 458.107 613.814 469.471 646.188C478.305 664.094 485.282 670.929 504.748 672C537.807 665.574 560.675 653.071 560.675 616.073V563.158C560.675 517.126 533.142 484 486.68 484H269.856C235.869 484 195 510.673 195 556.275C195 578.832 195 587.81 195 593.883C195 600.088 195 603.26 195 614.783C195 637.583 216.947 668.823 248.346 671.57C279.744 674.316 289.215 633.712 289.215 633.712Z" fill="#01223B"/>
<path d="M503.888 529.172C503.888 537.012 497.532 543.368 489.691 543.368C481.851 543.368 475.494 537.012 475.494 529.172C475.494 521.331 481.851 514.975 489.691 514.975C497.532 514.975 503.888 521.331 503.888 529.172Z" fill="#04253D"/>
<path d="M503.888 585.098C503.888 592.939 497.532 599.295 489.691 599.295C481.851 599.295 475.494 592.939 475.494 585.098C475.494 577.258 481.851 570.902 489.691 570.902C497.532 570.902 503.888 577.258 503.888 585.098Z" fill="#04253D"/>
<path d="M532.282 556.705C532.282 564.546 525.925 570.902 518.085 570.902C510.244 570.902 503.888 564.546 503.888 556.705C503.888 548.864 510.244 542.508 518.085 542.508C525.925 542.508 532.282 548.864 532.282 556.705Z" fill="#04253D"/>
<path d="M475.494 556.705C475.494 564.546 469.138 570.902 461.298 570.902C453.457 570.902 447.101 564.546 447.101 556.705C447.101 548.864 453.457 542.508 461.298 542.508C469.138 542.508 475.494 548.864 475.494 556.705Z" fill="#04253D"/>
<path d="M248.346 527.451C248.346 520.085 254.316 514.114 261.682 514.114C269.047 514.114 275.018 520.085 275.018 527.451V585.959C275.018 593.324 269.047 599.295 261.682 599.295C254.316 599.295 248.346 593.324 248.346 585.959V527.451Z" fill="#04253D"/>
<path d="M232.428 570.041C225.062 570.041 219.092 564.07 219.092 556.705C219.092 549.339 225.062 543.368 232.428 543.368H290.936C298.301 543.368 304.272 549.339 304.272 556.705C304.272 564.07 298.301 570.041 290.936 570.041H232.428Z" fill="#04253D"/>
<path d="M506.496 275.5C506.496 344.812 447.845 401 375.496 401C303.147 401 244.496 344.812 244.496 275.5C244.496 206.188 303.147 150 375.496 150C447.845 150 506.496 206.188 506.496 275.5Z" fill="white"/>
<path d="M216.996 274.5C220.127 230.863 235.423 196.558 267.996 164.5C196.332 136.314 136.996 168 83.996 250.5C79.9835 257.466 80.0192 261.178 83.996 267.5L210.996 401.5C214.564 405.011 218.496 406 222.496 406C226.496 406 239.996 400.5 239.996 390V351C221.49 325.393 216.68 308.541 216.996 274.5Z" fill="white"/>
<mask id="mask1_6_384" style="mask-type:alpha" maskUnits="userSpaceOnUse" x="81" y="154" width="187" height="252">
<path d="M216.996 274.5C220.127 230.863 235.423 196.558 267.996 164.5C196.332 136.314 136.996 168 83.996 250.5C79.9835 257.466 80.0192 261.178 83.996 267.5L210.996 401.5C214.564 405.011 218.496 406 222.496 406C226.496 406 239.996 400.5 239.996 390V351C221.49 325.393 216.68 308.541 216.996 274.5Z" fill="white"/>
</mask>
<g mask="url(#mask1_6_384)">
<path d="M289.313 276.277C292.579 232.566 308.529 198.203 342.496 166.09C267.764 137.857 205.889 169.596 150.62 252.236C146.436 259.214 146.473 262.933 150.62 269.265L283.056 403.492C286.777 407.01 290.877 408 295.049 408C299.22 408 313.298 402.491 313.298 391.973V352.907C294 327.256 288.983 310.376 289.313 276.277Z" fill="#98B7CC"/>
</g>
<path d="M533.497 274.073C530.366 230.437 515.07 196.132 482.496 164.073C554.162 135.887 613.499 167.573 666.5 250.073C670.513 257.039 670.477 260.752 666.5 267.073L539.497 401.073C535.929 404.584 531.997 405.573 527.997 405.573C523.997 405.573 510.497 400.073 510.497 389.573V350.573C529.003 324.966 533.814 308.115 533.497 274.073Z" fill="white"/>
<mask id="mask2_6_384" style="mask-type:alpha" maskUnits="userSpaceOnUse" x="482" y="154" width="188" height="252">
<path d="M533.497 274.073C530.366 230.437 515.07 196.132 482.496 164.073C554.162 135.887 613.499 167.573 666.5 250.073C670.513 257.039 670.477 260.752 666.5 267.073L539.497 401.073C535.929 404.584 531.997 405.573 527.997 405.573C523.997 405.573 510.497 400.073 510.497 389.573V350.573C529.003 324.966 533.814 308.115 533.497 274.073Z" fill="white"/>
</mask>
<g mask="url(#mask2_6_384)">
<path d="M461.179 275.85C457.913 232.14 441.963 197.776 407.994 165.664C482.728 137.43 544.605 169.17 599.874 251.81C604.059 258.787 604.021 262.506 599.874 268.839L467.435 403.066C463.715 406.583 459.614 407.573 455.443 407.573C451.272 407.573 437.194 402.064 437.194 391.546V352.48C456.492 326.83 461.508 309.95 461.179 275.85Z" fill="#98B7CC"/>
</g>
<path d="M232.496 465.499C225.996 472.499 238.496 492.5 253.496 479.499C268.496 466.499 275.996 451.5 282.996 432.5C289.996 410 293.996 385.5 292.996 373C291.996 360.499 265.496 327.999 265.496 343.5C265.496 359 268.597 390.632 261.496 414.5C253.244 442.241 238.996 458.5 232.496 465.499Z" fill="white"/>
<path d="M518.747 465.629C525.204 472.657 512.786 492.742 497.886 479.687C482.985 466.633 475.535 451.571 468.581 432.492C461.627 409.899 457.654 385.297 458.647 372.745C459.641 360.192 485.965 327.557 485.965 343.122C485.965 358.687 482.885 390.45 489.939 414.418C498.136 442.274 512.29 458.601 518.747 465.629Z" fill="white"/>
<path d="M318.496 389C318.496 376 320.496 370.5 320.496 370.5L427.996 373L432.496 388.5L431.496 468C432.219 481.609 431.47 489.176 426.996 502.5C419.961 519.511 414.265 527.966 399.996 540.5C381.826 554.234 369.503 557.373 344.496 556.5C324.888 553.765 315.696 548.734 301.496 535.5C291.634 524.295 287.07 516.978 283.996 498.5C283.829 490.165 283.962 484.982 286.996 476.5C292.073 468.139 295.496 464.811 301.496 463C313.565 459.357 321.011 464.249 326.496 471.5C330.736 475.745 328.431 484.807 329.996 492.5C331.292 498.869 333.585 502.9 338.996 506.5C346.474 511.475 354.493 510.673 361.996 506.5C369.499 502.327 372.03 498.375 374.496 491C376.912 483.776 374.651 476.249 373.996 471.5C373.341 466.751 370.869 461.431 367.996 458C365.124 454.569 338.451 430.998 331.496 423.5C324.542 416.002 318.496 402 318.496 389Z" fill="white"/>
<path d="M332.496 280.5C332.496 292.926 322.423 303 309.996 303C297.57 303 287.496 292.926 287.496 280.5C287.496 268.074 297.57 258 309.996 258C322.423 258 332.496 268.074 332.496 280.5Z" fill="#04253D"/>
<path d="M462.496 280.5C462.496 292.926 452.423 303 439.996 303C427.57 303 417.496 292.926 417.496 280.5C417.496 268.074 427.57 258 439.996 258C452.423 258 462.496 268.074 462.496 280.5Z" fill="#04253D"/>
</g>
<defs>
<clipPath id="clip0_6_384">
<rect width="750" height="750" fill="white"/>
</clipPath>
</defs>
</svg>
