<svg width="750" height="750" viewBox="0 0 750 750" fill="none" xmlns="http://www.w3.org/2000/svg">
<g clip-path="url(#clip0_6_151)">
<rect width="750" height="750" rx="100" fill="white"/>
<path d="M138 176C138 151.147 158.147 131 183 131H568C592.853 131 613 151.147 613 176V561C613 585.853 592.853 606 568 606H183C158.147 606 138 585.853 138 561V176Z" fill="#B0C4D3"/>
<path d="M186 194C186 184.059 194.059 176 204 176H553C562.941 176 571 184.059 571 194V543C571 552.941 562.941 561 553 561H204C194.059 561 186 552.941 186 543V194Z" fill="#01223B"/>
<mask id="mask0_6_151" style="mask-type:alpha" maskUnits="userSpaceOnUse" x="138" y="325" width="523" height="178">
<path d="M138 475.5V365V325H172.5L613 339.5V446L660.5 495.5L571 502.5V476L568 396.5L532 385L185 365V501.5L138 475.5Z" fill="white"/>
</mask>
<g mask="url(#mask0_6_151)">
<path d="M506.137 318.613C506.137 387.987 447.536 444.225 375.248 444.225C302.96 444.225 244.358 387.987 244.358 318.613C244.358 249.239 302.96 193 375.248 193C447.536 193 506.137 249.239 506.137 318.613Z" fill="white"/>
<path d="M216.881 317.611C220.01 273.936 235.293 239.6 267.838 207.513C196.234 179.302 136.949 211.016 83.9935 293.59C79.9843 300.562 80.0201 304.278 83.9935 310.606L210.886 444.726C214.451 448.24 218.38 449.23 222.377 449.23C226.373 449.23 239.862 443.725 239.862 433.215V394.18C221.372 368.55 216.565 351.684 216.881 317.611Z" fill="white"/>
<path d="M533.116 317.388C529.987 273.639 514.704 239.245 482.158 207.103C553.763 178.844 613.05 210.612 666.006 293.326C670.016 300.31 669.98 304.032 666.006 310.371L539.111 444.718C535.546 448.239 531.617 449.23 527.62 449.23C523.624 449.23 510.135 443.716 510.135 433.188V394.087C528.625 368.414 533.432 351.518 533.116 317.388Z" fill="white"/>
<path d="M232.368 508.783C225.874 515.788 238.363 535.808 253.351 522.795C268.338 509.783 275.832 494.771 282.826 475.754C289.82 453.234 293.817 428.711 292.817 416.2C291.818 403.688 265.341 371.159 265.341 386.673C265.341 402.188 268.438 433.848 261.344 457.738C253.098 485.503 238.863 501.777 232.368 508.783Z" fill="white"/>
<path d="M518.378 508.912C524.829 515.947 512.422 536.05 497.534 522.983C482.646 509.917 475.202 494.842 468.254 475.746C461.306 453.133 457.336 428.508 458.329 415.945C459.321 403.381 485.624 370.717 485.624 386.295C485.624 401.874 482.546 433.666 489.594 457.655C497.785 485.536 511.926 501.878 518.378 508.912Z" fill="white"/>
<path d="M318.296 432.215C318.296 419.203 320.294 413.698 320.294 413.698L427.704 416.2L432.2 431.714L431.201 511.286C431.923 524.907 431.174 532.48 426.704 545.817C419.676 562.843 413.984 571.305 399.727 583.851C381.572 597.597 369.259 600.738 344.274 599.865C324.682 597.128 315.498 592.092 301.31 578.846C291.456 567.631 286.896 560.308 283.825 541.813C283.658 533.471 283.791 528.283 286.822 519.793C291.895 511.424 295.315 508.094 301.31 506.281C313.369 502.635 320.809 507.531 326.289 514.789C330.525 519.038 328.223 528.107 329.786 535.808C331.081 542.182 333.372 546.217 338.779 549.82C346.251 554.8 354.262 553.997 361.759 549.82C369.256 545.643 371.785 541.688 374.249 534.306C376.663 527.075 374.403 519.542 373.749 514.789C373.095 510.036 370.624 504.71 367.754 501.277C364.884 497.843 338.234 474.25 331.285 466.746C324.336 459.241 318.296 445.226 318.296 432.215Z" fill="white"/>
</g>
<path d="M506.496 291.5C506.496 360.812 447.845 417 375.496 417C303.147 417 244.496 360.812 244.496 291.5C244.496 222.188 303.147 166 375.496 166C447.845 166 506.496 222.188 506.496 291.5Z" fill="white"/>
<path d="M216.996 290.5C220.127 246.863 235.423 212.558 267.996 180.5C196.332 152.314 136.996 184 83.996 266.5C79.9835 273.466 80.0192 277.178 83.996 283.5L210.996 417.5C214.564 421.011 218.496 422 222.496 422C226.496 422 239.996 416.5 239.996 406V367C221.49 341.393 216.68 324.541 216.996 290.5Z" fill="white"/>
<path d="M533.497 290.277C530.366 246.566 515.07 212.203 482.496 180.09C554.162 151.857 613.499 183.596 666.5 266.236C670.513 273.214 670.477 276.933 666.5 283.265L539.497 417.492C535.929 421.01 531.997 422 527.997 422C523.997 422 510.497 416.491 510.497 405.973V366.907C529.003 341.256 533.814 324.376 533.497 290.277Z" fill="white"/>
<path d="M232.496 481.499C225.996 488.499 238.496 508.5 253.496 495.499C268.496 482.499 275.996 467.5 282.996 448.5C289.996 426 293.996 401.5 292.996 389C291.996 376.499 265.496 343.999 265.496 359.5C265.496 375 268.597 406.632 261.496 430.5C253.244 458.241 238.996 474.5 232.496 481.499Z" fill="white"/>
<path d="M518.747 481.629C525.204 488.657 512.786 508.742 497.886 495.687C482.985 482.633 475.535 467.571 468.581 448.492C461.627 425.899 457.654 401.297 458.647 388.745C459.641 376.192 485.965 343.557 485.965 359.122C485.965 374.687 482.885 406.45 489.939 430.418C498.136 458.274 512.29 474.601 518.747 481.629Z" fill="white"/>
<path d="M318.496 405C318.496 392 320.496 386.5 320.496 386.5L427.996 389L432.496 404.5L431.496 484C432.219 497.609 431.47 505.176 426.996 518.5C419.961 535.511 414.265 543.966 399.996 556.5C381.826 570.234 369.503 573.373 344.496 572.5C324.888 569.765 315.696 564.734 301.496 551.5C291.634 540.295 287.07 532.978 283.996 514.5C283.829 506.165 283.962 500.982 286.996 492.5C292.073 484.139 295.496 480.811 301.496 479C313.565 475.357 321.011 480.249 326.496 487.5C330.736 491.745 328.431 500.807 329.996 508.5C331.292 514.869 333.585 518.9 338.996 522.5C346.474 527.475 354.493 526.673 361.996 522.5C369.499 518.327 372.03 514.375 374.496 507C376.912 499.776 374.651 492.249 373.996 487.5C373.341 482.751 370.869 477.431 367.996 474C365.124 470.569 338.451 446.998 331.496 439.5C324.542 432.002 318.496 418 318.496 405Z" fill="white"/>
<path fill-rule="evenodd" clip-rule="evenodd" d="M375.496 193C316.955 193 271.496 238.18 271.496 291.5C271.496 305.433 274.6 318.81 280.23 330.97C285.28 333.12 289.23 336.244 291.663 338.362C294.409 340.753 296.968 343.417 299.231 346.016C302.691 349.988 306.108 354.554 309.1 359.228L440.443 362.282C443.831 356.485 447.994 350.675 452.224 345.765C454.472 343.157 457.014 340.481 459.746 338.077C462.113 335.993 465.948 332.919 470.864 330.748C476.43 318.647 479.496 305.348 479.496 291.5C479.496 238.18 434.037 193 375.496 193ZM293.128 161.371C317.229 147.148 345.495 139 375.496 139C405.246 139 433.289 147.012 457.256 161.014L472.599 154.969C514.708 138.38 555.372 138.928 593.269 157.287C629.975 175.069 661.387 208.251 689.227 251.66L689.58 252.21L689.906 252.776C692.669 257.582 696.513 265.284 696.496 275.039C696.479 285.105 692.388 292.811 689.365 297.625L687.946 299.884L558.787 436.391L558.452 436.72C548.608 446.424 537.164 449 527.997 449C527.85 449 527.704 448.999 527.558 448.997C531.877 455.849 536.033 460.536 538.63 463.362C547.869 473.42 548.292 485.702 546.864 493.495C545.378 501.6 541.363 509.184 535.66 515.035C529.809 521.038 520.938 526.394 509.679 526.953C498.104 527.528 487.917 522.85 480.093 515.996C471.087 508.105 464.232 499.682 458.728 490.91C458.818 503.231 457.271 513.158 452.592 527.094L452.299 527.967L451.947 528.818C448.069 538.196 444 546.605 438.289 554.719C432.547 562.876 425.879 569.702 417.815 576.785L417.069 577.441L416.277 578.039C405.577 586.127 394.929 592.355 382.142 595.963C369.692 599.476 357.102 599.956 343.555 599.484L342.154 599.435L340.766 599.241C329.277 597.639 318.962 595.109 308.917 590.099C299.013 585.159 290.96 578.589 283.088 571.252L282.111 570.341L281.228 569.339C275.825 563.2 270.368 556.475 266.03 547.761C262.35 540.368 259.988 532.608 258.264 523.9C253.168 525.956 247.585 527.04 241.647 526.748C230.46 526.198 221.594 520.93 215.7 514.949C209.963 509.125 205.888 501.539 204.378 493.387C202.921 485.523 203.375 473.18 212.712 463.126C215.311 460.326 219.45 455.708 223.757 448.974C223.341 448.991 222.92 449 222.496 449C213.342 449 201.903 446.433 192.058 436.744L191.723 436.414L62.5632 300.136L61.1421 297.877C58.118 293.07 54.0175 285.362 54.0001 275.288C53.9832 265.525 57.8361 257.821 60.6001 253.023L60.9264 252.457L61.2797 251.906C89.1239 208.564 120.538 175.437 157.241 157.686C195.129 139.362 235.779 138.816 277.878 155.373L293.128 161.371ZM219.264 197.429C205.613 197.314 192.916 200.417 180.752 206.299C158.223 217.195 135.151 238.809 111.715 273.497L212.996 380.36V375.461C205.28 363.885 199.402 352.512 195.562 339.622C190.973 324.22 189.828 308.421 189.997 290.249L190.005 289.407L190.065 288.567C192.524 254.311 201.754 224.556 219.264 197.429ZM401.871 508.483C402.862 502.643 402.652 497.44 402.258 493.577C401.98 490.856 401.566 488.444 401.267 486.772C401.132 486.022 401.035 485.489 400.963 485.093C400.834 484.385 400.785 484.114 400.743 483.813C399.365 473.818 394.682 463.814 388.698 456.667C386.677 454.253 383.005 450.83 380.645 448.63L380.472 448.469C379.014 447.109 377.375 445.595 375.643 444C385.663 443.991 395.489 443.073 405.031 441.324L404.487 484.546L404.534 485.431C405.07 495.535 404.704 499.759 401.871 508.483ZM106.962 280.789C106.959 280.791 106.981 280.738 107.037 280.627C106.992 280.733 106.964 280.788 106.962 280.789ZM537.497 375.357V380.322L638.803 273.253C615.351 238.471 592.264 216.803 569.726 205.885C557.553 199.988 544.846 196.88 531.183 197.003C548.725 224.192 557.968 254.013 560.428 288.347L560.488 289.186L560.496 290.026C560.665 308.225 559.52 324.041 554.935 339.457C551.095 352.367 545.217 363.758 537.497 375.357ZM643.526 280.514C643.524 280.512 643.496 280.457 643.452 280.352C643.507 280.462 643.529 280.515 643.526 280.514Z" fill="#01223B"/>
<path d="M486.68 500H269.856C235.869 500 195 526.673 195 572.275C195 617.877 195 607.982 195 630.783C195 653.583 216.947 684.823 248.346 687.57C279.744 690.316 289.215 649.712 289.215 649.712C302.547 626.384 312.5 615.858 340.84 607.982C367.554 603.076 382.529 603.22 409.243 607.982C444.041 618.754 458.107 629.814 469.471 662.188C478.305 680.094 485.282 686.929 504.748 688C537.807 681.574 560.675 669.071 560.675 632.073V579.158C560.675 533.126 533.142 500 486.68 500Z" fill="#B0C4D3"/>
<path fill-rule="evenodd" clip-rule="evenodd" d="M506.335 711.122L503.484 710.965C491.277 710.293 479.44 707.627 469.06 699.607C459.368 692.118 453.512 681.823 448.845 672.363L448.23 671.117L447.77 669.806C442.788 655.615 438.157 648.825 432.965 644.264C427.548 639.505 419.423 635.305 403.792 630.375C380.927 626.38 368.763 626.307 346.029 630.415C334.385 633.738 328.452 637.05 324.281 640.589C320.081 644.154 316.162 649.198 310.588 658.699C310.158 660.124 309.583 661.9 308.842 663.923C307.084 668.723 304.236 675.353 299.913 682.091C291.465 695.259 274.301 712.928 246.341 710.482C223.364 708.472 204.828 696.153 192.42 681.647C180.28 667.453 172 648.826 172 630.783C172 619.265 172 616.09 172 609.89C172 603.816 172 594.84 172 572.275C172 510.723 226.678 477 269.856 477H486.68C515.708 477 540.658 487.534 558.161 506.891C575.414 525.972 583.675 551.648 583.675 579.158V632.073C583.675 655.9 575.996 675.139 560.19 688.867C545.648 701.496 526.719 707.16 509.137 710.577L506.335 711.122ZM289.215 649.712C302.547 626.384 312.5 615.858 340.84 607.982C367.554 603.076 382.529 603.22 409.243 607.982C444.041 618.754 458.107 629.814 469.471 662.188C478.305 680.094 485.282 686.929 504.748 688C537.807 681.574 560.675 669.071 560.675 632.073V579.158C560.675 533.126 533.142 500 486.68 500H269.856C235.869 500 195 526.673 195 572.275C195 594.832 195 603.81 195 609.883C195 616.088 195 619.26 195 630.783C195 653.583 216.947 684.823 248.346 687.57C279.744 690.316 289.215 649.712 289.215 649.712Z" fill="#01223B"/>
<path d="M503.888 545.172C503.888 553.012 497.532 559.368 489.691 559.368C481.851 559.368 475.494 553.012 475.494 545.172C475.494 537.331 481.851 530.975 489.691 530.975C497.532 530.975 503.888 537.331 503.888 545.172Z" fill="#04253D"/>
<path d="M503.888 601.098C503.888 608.939 497.532 615.295 489.691 615.295C481.851 615.295 475.494 608.939 475.494 601.098C475.494 593.258 481.851 586.902 489.691 586.902C497.532 586.902 503.888 593.258 503.888 601.098Z" fill="#04253D"/>
<path d="M532.282 572.705C532.282 580.546 525.925 586.902 518.085 586.902C510.244 586.902 503.888 580.546 503.888 572.705C503.888 564.864 510.244 558.508 518.085 558.508C525.925 558.508 532.282 564.864 532.282 572.705Z" fill="#04253D"/>
<path d="M475.494 572.705C475.494 580.546 469.138 586.902 461.298 586.902C453.457 586.902 447.101 580.546 447.101 572.705C447.101 564.864 453.457 558.508 461.298 558.508C469.138 558.508 475.494 564.864 475.494 572.705Z" fill="#04253D"/>
<path d="M248.346 543.451C248.346 536.085 254.316 530.114 261.682 530.114C269.047 530.114 275.018 536.085 275.018 543.451V601.959C275.018 609.324 269.047 615.295 261.682 615.295C254.316 615.295 248.346 609.324 248.346 601.959V543.451Z" fill="#04253D"/>
<path d="M232.428 586.041C225.062 586.041 219.092 580.07 219.092 572.705C219.092 565.339 225.062 559.368 232.428 559.368H290.936C298.301 559.368 304.272 565.339 304.272 572.705C304.272 580.07 298.301 586.041 290.936 586.041H232.428Z" fill="#04253D"/>
<path d="M506.496 291.5C506.496 360.812 447.845 417 375.496 417C303.147 417 244.496 360.812 244.496 291.5C244.496 222.188 303.147 166 375.496 166C447.845 166 506.496 222.188 506.496 291.5Z" fill="white"/>
<path d="M216.996 290.5C220.127 246.863 235.423 212.558 267.996 180.5C196.332 152.314 136.996 184 83.996 266.5C79.9835 273.466 80.0192 277.178 83.996 283.5L210.996 417.5C214.564 421.011 218.496 422 222.496 422C226.496 422 239.996 416.5 239.996 406V367C221.49 341.393 216.68 324.541 216.996 290.5Z" fill="white"/>
<mask id="mask1_6_151" style="mask-type:alpha" maskUnits="userSpaceOnUse" x="81" y="170" width="187" height="252">
<path d="M216.996 290.5C220.127 246.863 235.423 212.558 267.996 180.5C196.332 152.314 136.996 184 83.996 266.5C79.9835 273.466 80.0192 277.178 83.996 283.5L210.996 417.5C214.564 421.011 218.496 422 222.496 422C226.496 422 239.996 416.5 239.996 406V367C221.49 341.393 216.68 324.541 216.996 290.5Z" fill="white"/>
</mask>
<g mask="url(#mask1_6_151)">
<path d="M289.313 292.277C292.579 248.566 308.529 214.203 342.496 182.09C267.764 153.857 205.889 185.596 150.62 268.236C146.436 275.214 146.473 278.933 150.62 285.265L283.056 419.492C286.777 423.01 290.877 424 295.049 424C299.22 424 313.298 418.491 313.298 407.973V368.907C294 343.256 288.983 326.376 289.313 292.277Z" fill="#98B7CC"/>
</g>
<path d="M533.497 290.073C530.366 246.437 515.07 212.132 482.496 180.073C554.162 151.887 613.499 183.573 666.5 266.073C670.513 273.039 670.477 276.752 666.5 283.073L539.497 417.073C535.929 420.584 531.997 421.573 527.997 421.573C523.997 421.573 510.497 416.073 510.497 405.573V366.573C529.003 340.966 533.814 324.115 533.497 290.073Z" fill="white"/>
<mask id="mask2_6_151" style="mask-type:alpha" maskUnits="userSpaceOnUse" x="482" y="170" width="188" height="252">
<path d="M533.497 290.073C530.366 246.437 515.07 212.132 482.496 180.073C554.162 151.887 613.499 183.573 666.5 266.073C670.513 273.039 670.477 276.752 666.5 283.073L539.497 417.073C535.929 420.584 531.997 421.573 527.997 421.573C523.997 421.573 510.497 416.073 510.497 405.573V366.573C529.003 340.966 533.814 324.115 533.497 290.073Z" fill="white"/>
</mask>
<g mask="url(#mask2_6_151)">
<path d="M461.179 291.85C457.913 248.14 441.963 213.776 407.994 181.664C482.728 153.43 544.605 185.17 599.874 267.81C604.059 274.787 604.021 278.506 599.874 284.839L467.435 419.066C463.715 422.583 459.614 423.573 455.443 423.573C451.272 423.573 437.194 418.064 437.194 407.546V368.48C456.492 342.83 461.508 325.95 461.179 291.85Z" fill="#98B7CC"/>
</g>
<path d="M232.496 481.499C225.996 488.499 238.496 508.5 253.496 495.499C268.496 482.499 275.996 467.5 282.996 448.5C289.996 426 293.996 401.5 292.996 389C291.996 376.499 265.496 343.999 265.496 359.5C265.496 375 268.597 406.632 261.496 430.5C253.244 458.241 238.996 474.5 232.496 481.499Z" fill="white"/>
<path d="M518.747 481.629C525.204 488.657 512.786 508.742 497.886 495.687C482.985 482.633 475.535 467.571 468.581 448.492C461.627 425.899 457.654 401.297 458.647 388.745C459.641 376.192 485.965 343.557 485.965 359.122C485.965 374.687 482.885 406.45 489.939 430.418C498.136 458.274 512.29 474.601 518.747 481.629Z" fill="white"/>
<path d="M318.496 405C318.496 392 320.496 386.5 320.496 386.5L427.996 389L432.496 404.5L431.496 484C432.219 497.609 431.47 505.176 426.996 518.5C419.961 535.511 414.265 543.966 399.996 556.5C381.826 570.234 369.503 573.373 344.496 572.5C324.888 569.765 315.696 564.734 301.496 551.5C291.634 540.295 287.07 532.978 283.996 514.5C283.829 506.165 283.962 500.982 286.996 492.5C292.073 484.139 295.496 480.811 301.496 479C313.565 475.357 321.011 480.249 326.496 487.5C330.736 491.745 328.431 500.807 329.996 508.5C331.292 514.869 333.585 518.9 338.996 522.5C346.474 527.475 354.493 526.673 361.996 522.5C369.499 518.327 372.03 514.375 374.496 507C376.912 499.776 374.651 492.249 373.996 487.5C373.341 482.751 370.869 477.431 367.996 474C365.124 470.569 338.451 446.998 331.496 439.5C324.542 432.002 318.496 418 318.496 405Z" fill="white"/>
<path d="M332.496 296.5C332.496 308.926 322.423 319 309.996 319C297.57 319 287.496 308.926 287.496 296.5C287.496 284.074 297.57 274 309.996 274C322.423 274 332.496 284.074 332.496 296.5Z" fill="#04253D"/>
<path d="M462.496 296.5C462.496 308.926 452.423 319 439.996 319C427.57 319 417.496 308.926 417.496 296.5C417.496 284.074 427.57 274 439.996 274C452.423 274 462.496 284.074 462.496 296.5Z" fill="#04253D"/>
</g>
<defs>
<clipPath id="clip0_6_151">
<rect width="750" height="750" fill="white"/>
</clipPath>
</defs>
</svg>
