<svg width="1024" height="1024" viewBox="0 0 1024 1024" fill="none" xmlns="http://www.w3.org/2000/svg">
<rect x="137" y="137" width="750" height="750" rx="100" fill="white"/>
<rect x="275" y="274" width="475" height="475" rx="45" fill="#B0C4D3"/>
<rect x="323" y="319" width="385" height="385" rx="18" fill="#01223B"/>
<mask id="mask0_3_11" style="mask-type:alpha" maskUnits="userSpaceOnUse" x="275" y="468" width="523" height="178">
<path d="M275 618.5V508V468H309.5L750 482.5V589L797.5 638.5L708 645.5V619L705 539.5L669 528L322 508V644.5L275 618.5Z" fill="white"/>
</mask>
<g mask="url(#mask0_3_11)">
<path d="M643.137 461.613C643.137 530.987 584.536 587.225 512.248 587.225C439.96 587.225 381.358 530.987 381.358 461.613C381.358 392.239 439.96 336 512.248 336C584.536 336 643.137 392.239 643.137 461.613Z" fill="white"/>
<path d="M353.881 460.611C357.01 416.936 372.293 382.6 404.838 350.513C333.234 322.302 273.949 354.016 220.994 436.59C216.984 443.562 217.02 447.278 220.994 453.606L347.886 587.726C351.451 591.24 355.38 592.23 359.377 592.23C363.373 592.23 376.862 586.725 376.862 576.215V537.18C358.372 511.55 353.565 494.684 353.881 460.611Z" fill="white"/>
<path d="M670.116 460.388C666.987 416.639 651.704 382.245 619.158 350.103C690.763 321.844 750.05 353.612 803.006 436.326C807.016 443.31 806.98 447.032 803.006 453.371L676.111 587.718C672.546 591.239 668.617 592.23 664.62 592.23C660.623 592.23 647.135 586.716 647.135 576.188V537.087C665.625 511.414 670.432 494.518 670.116 460.388Z" fill="white"/>
<path d="M369.368 651.783C362.874 658.788 375.363 678.808 390.351 665.795C405.338 652.783 412.832 637.771 419.826 618.754C426.82 596.234 430.817 571.711 429.817 559.2C428.818 546.688 402.341 514.159 402.341 529.673C402.341 545.188 405.438 576.848 398.344 600.738C390.099 628.503 375.863 644.777 369.368 651.783Z" fill="white"/>
<path d="M655.378 651.912C661.829 658.947 649.422 679.05 634.534 665.983C619.646 652.917 612.202 637.842 605.254 618.746C598.306 596.133 594.336 571.508 595.329 558.945C596.321 546.381 622.624 513.717 622.624 529.295C622.624 544.874 619.546 576.666 626.594 600.655C634.785 628.536 648.926 644.878 655.378 651.912Z" fill="white"/>
<path d="M455.296 575.215C455.296 562.203 457.294 556.698 457.294 556.698L564.704 559.2L569.2 574.714L568.201 654.286C568.923 667.907 568.174 675.48 563.704 688.817C556.676 705.843 550.985 714.305 536.727 726.851C518.572 740.597 506.259 743.738 481.274 742.865C461.682 740.128 452.498 735.092 438.31 721.846C428.456 710.631 423.896 703.308 420.825 684.813C420.658 676.471 420.791 671.283 423.822 662.793C428.895 654.424 432.315 651.094 438.31 649.281C450.369 645.635 457.809 650.532 463.289 657.789C467.525 662.038 465.223 671.107 466.786 678.808C468.081 685.182 470.372 689.217 475.779 692.82C483.251 697.8 491.262 696.997 498.759 692.82C506.256 688.643 508.785 684.688 511.249 677.306C513.663 670.075 511.403 662.542 510.749 657.789C510.095 653.036 507.624 647.71 504.754 644.277C501.884 640.843 475.234 617.25 468.285 609.746C461.336 602.241 455.296 588.226 455.296 575.215Z" fill="white"/>
<path d="M643.137 461.613C643.137 530.987 584.536 587.225 512.248 587.225C439.96 587.225 381.358 530.987 381.358 461.613C381.358 392.239 439.96 336 512.248 336C584.536 336 643.137 392.239 643.137 461.613Z" stroke="#729BB6" stroke-width="85"/>
<path d="M353.881 460.611C357.01 416.936 372.293 382.6 404.838 350.513C333.234 322.302 273.949 354.016 220.994 436.59C216.984 443.562 217.02 447.278 220.994 453.606L347.886 587.726C351.451 591.24 355.38 592.23 359.377 592.23C363.373 592.23 376.862 586.725 376.862 576.215V537.18C358.372 511.55 353.565 494.684 353.881 460.611Z" stroke="#729BB6" stroke-width="85"/>
<path d="M670.116 460.388C666.987 416.639 651.704 382.245 619.158 350.103C690.763 321.844 750.05 353.612 803.006 436.326C807.016 443.31 806.98 447.032 803.006 453.371L676.111 587.718C672.546 591.239 668.617 592.23 664.62 592.23C660.623 592.23 647.135 586.716 647.135 576.188V537.087C665.625 511.414 670.432 494.518 670.116 460.388Z" stroke="#729BB6" stroke-width="85"/>
<path d="M369.368 651.783C362.874 658.788 375.363 678.808 390.351 665.795C405.338 652.783 412.832 637.771 419.826 618.754C426.82 596.234 430.817 571.711 429.817 559.2C428.818 546.688 402.341 514.159 402.341 529.673C402.341 545.188 405.438 576.848 398.344 600.738C390.099 628.503 375.863 644.777 369.368 651.783Z" stroke="#729BB6" stroke-width="85"/>
<path d="M655.378 651.912C661.829 658.947 649.422 679.05 634.534 665.983C619.646 652.917 612.202 637.842 605.254 618.746C598.306 596.133 594.336 571.508 595.329 558.945C596.321 546.381 622.624 513.717 622.624 529.295C622.624 544.874 619.546 576.666 626.594 600.655C634.785 628.536 648.926 644.878 655.378 651.912Z" stroke="#729BB6" stroke-width="85"/>
<path d="M455.296 575.215C455.296 562.203 457.294 556.698 457.294 556.698L564.704 559.2L569.2 574.714L568.201 654.286C568.923 667.907 568.174 675.48 563.704 688.817C556.676 705.843 550.985 714.305 536.727 726.851C518.572 740.597 506.259 743.738 481.274 742.865C461.682 740.128 452.498 735.092 438.31 721.846C428.456 710.631 423.896 703.308 420.825 684.813C420.658 676.471 420.791 671.283 423.822 662.793C428.895 654.424 432.315 651.094 438.31 649.281C450.369 645.635 457.809 650.532 463.289 657.789C467.525 662.038 465.223 671.107 466.786 678.808C468.081 685.182 470.372 689.217 475.779 692.82C483.251 697.8 491.262 696.997 498.759 692.82C506.256 688.643 508.785 684.688 511.249 677.306C513.663 670.075 511.403 662.542 510.749 657.789C510.095 653.036 507.624 647.71 504.754 644.277C501.884 640.843 475.234 617.25 468.285 609.746C461.336 602.241 455.296 588.226 455.296 575.215Z" stroke="#729BB6" stroke-width="85"/>
</g>
<path d="M643 461.5C643 530.812 584.349 587 512 587C439.651 587 381 530.812 381 461.5C381 392.188 439.651 336 512 336C584.349 336 643 392.188 643 461.5Z" fill="white"/>
<path d="M353.5 460.5C356.631 416.863 371.927 382.558 404.5 350.5C332.836 322.314 273.5 354 220.5 436.5C216.487 443.466 216.523 447.178 220.5 453.5L347.5 587.5C351.068 591.011 355 592 359 592C363 592 376.5 586.5 376.5 576V537C357.994 511.393 353.184 494.541 353.5 460.5Z" fill="white"/>
<path d="M670.001 460.277C666.87 416.566 651.574 382.203 619 350.09C690.666 321.857 750.003 353.596 803.004 436.236C807.017 443.214 806.981 446.933 803.004 453.265L676.001 587.492C672.433 591.01 668.501 592 664.501 592C660.501 592 647.001 586.491 647.001 575.973V536.907C665.507 511.256 670.317 494.376 670.001 460.277Z" fill="white"/>
<path d="M369 651.499C362.5 658.499 375 678.5 390 665.499C405 652.499 412.5 637.5 419.5 618.5C426.5 596 430.5 571.5 429.5 559C428.5 546.499 402 513.999 402 529.5C402 545 405.1 576.632 398 600.5C389.748 628.241 375.5 644.5 369 651.499Z" fill="white"/>
<path d="M655.25 651.629C661.707 658.657 649.29 678.742 634.39 665.687C619.489 652.633 612.038 637.571 605.085 618.492C598.131 595.899 594.158 571.297 595.151 558.745C596.144 546.192 622.469 513.557 622.469 529.122C622.469 544.687 619.389 576.45 626.442 600.418C634.64 628.274 648.793 644.601 655.25 651.629Z" fill="white"/>
<path d="M455 575C455 562 457 556.5 457 556.5L564.5 559L569 574.5L568 654C568.723 667.609 567.974 675.176 563.5 688.5C556.465 705.511 550.769 713.966 536.5 726.5C518.33 740.234 506.007 743.373 481 742.5C461.392 739.765 452.2 734.734 438 721.5C428.138 710.295 423.574 702.978 420.5 684.5C420.333 676.165 420.466 670.982 423.5 662.5C428.577 654.139 432 650.811 438 649C450.069 645.357 457.515 650.249 463 657.5C467.24 661.745 464.935 670.807 466.5 678.5C467.796 684.869 470.089 688.9 475.5 692.5C482.978 697.475 490.997 696.673 498.5 692.5C506.003 688.327 508.534 684.375 511 677C513.416 669.776 511.155 662.249 510.5 657.5C509.845 652.751 507.372 647.431 504.5 644C501.628 640.569 474.954 616.998 468 609.5C461.046 602.002 455 588 455 575Z" fill="white"/>
<path d="M643 461.5C643 530.812 584.349 587 512 587C439.651 587 381 530.812 381 461.5C381 392.188 439.651 336 512 336C584.349 336 643 392.188 643 461.5Z" stroke="#01223B" stroke-width="54"/>
<path d="M353.5 460.5C356.631 416.863 371.927 382.558 404.5 350.5C332.836 322.314 273.5 354 220.5 436.5C216.487 443.466 216.523 447.178 220.5 453.5L347.5 587.5C351.068 591.011 355 592 359 592C363 592 376.5 586.5 376.5 576V537C357.994 511.393 353.184 494.541 353.5 460.5Z" stroke="#01223B" stroke-width="54"/>
<path d="M670.001 460.277C666.87 416.566 651.574 382.203 619 350.09C690.666 321.857 750.003 353.596 803.004 436.236C807.017 443.214 806.981 446.933 803.004 453.265L676.001 587.492C672.433 591.01 668.501 592 664.501 592C660.501 592 647.001 586.491 647.001 575.973V536.907C665.507 511.256 670.317 494.376 670.001 460.277Z" stroke="#01223B" stroke-width="54"/>
<path d="M369 651.499C362.5 658.499 375 678.5 390 665.499C405 652.499 412.5 637.5 419.5 618.5C426.5 596 430.5 571.5 429.5 559C428.5 546.499 402 513.999 402 529.5C402 545 405.1 576.632 398 600.5C389.748 628.241 375.5 644.5 369 651.499Z" stroke="#01223B" stroke-width="54"/>
<path d="M655.25 651.629C661.707 658.657 649.29 678.742 634.39 665.687C619.489 652.633 612.038 637.571 605.085 618.492C598.131 595.899 594.158 571.297 595.151 558.745C596.144 546.192 622.469 513.557 622.469 529.122C622.469 544.687 619.389 576.45 626.442 600.418C634.64 628.274 648.793 644.601 655.25 651.629Z" stroke="#01223B" stroke-width="54"/>
<path d="M455 575C455 562 457 556.5 457 556.5L564.5 559L569 574.5L568 654C568.723 667.609 567.974 675.176 563.5 688.5C556.465 705.511 550.769 713.966 536.5 726.5C518.33 740.234 506.007 743.373 481 742.5C461.392 739.765 452.2 734.734 438 721.5C428.138 710.295 423.574 702.978 420.5 684.5C420.333 676.165 420.466 670.982 423.5 662.5C428.577 654.139 432 650.811 438 649C450.069 645.357 457.515 650.249 463 657.5C467.24 661.745 464.935 670.807 466.5 678.5C467.796 684.869 470.089 688.9 475.5 692.5C482.978 697.475 490.997 696.673 498.5 692.5C506.003 688.327 508.534 684.375 511 677C513.416 669.776 511.155 662.249 510.5 657.5C509.845 652.751 507.372 647.431 504.5 644C501.628 640.569 474.954 616.998 468 609.5C461.046 602.002 455 588 455 575Z" stroke="#01223B" stroke-width="54"/>
<ellipse cx="512" cy="461.5" rx="131" ry="125.5" fill="white"/>
<path d="M353.5 460.5C356.631 416.863 371.927 382.558 404.5 350.5C332.836 322.314 273.5 354 220.5 436.5C216.487 443.466 216.523 447.178 220.5 453.5L347.5 587.5C351.068 591.011 355 592 359 592C363 592 376.5 586.5 376.5 576V537C357.994 511.393 353.184 494.541 353.5 460.5Z" fill="white"/>
<mask id="mask1_3_11" style="mask-type:alpha" maskUnits="userSpaceOnUse" x="217" y="340" width="188" height="252">
<path d="M353.5 460.5C356.631 416.863 371.927 382.558 404.5 350.5C332.836 322.314 273.5 354 220.5 436.5C216.487 443.466 216.523 447.178 220.5 453.5L347.5 587.5C351.068 591.011 355 592 359 592C363 592 376.5 586.5 376.5 576V537C357.994 511.393 353.184 494.541 353.5 460.5Z" fill="white"/>
</mask>
<g mask="url(#mask1_3_11)">
<path d="M425.817 462.277C429.083 418.566 445.033 384.203 479 352.09C404.268 323.857 342.393 355.596 287.124 438.236C282.94 445.214 282.977 448.933 287.124 455.265L419.56 589.492C423.281 593.01 427.381 594 431.552 594C435.724 594 449.802 588.491 449.802 577.973V538.907C430.504 513.256 425.487 496.376 425.817 462.277Z" fill="#98B7CC"/>
</g>
<path d="M670.001 460.073C666.87 416.437 651.574 382.132 619 350.073C690.666 321.887 750.003 353.573 803.004 436.073C807.017 443.039 806.981 446.752 803.004 453.073L676.001 587.073C672.433 590.584 668.501 591.573 664.501 591.573C660.501 591.573 647.001 586.073 647.001 575.573V536.573C665.507 510.966 670.317 494.115 670.001 460.073Z" fill="white"/>
<mask id="mask2_3_11" style="mask-type:alpha" maskUnits="userSpaceOnUse" x="619" y="340" width="187" height="252">
<path d="M670.001 460.073C666.87 416.437 651.574 382.132 619 350.073C690.666 321.887 750.003 353.573 803.004 436.073C807.017 443.039 806.981 446.752 803.004 453.073L676.001 587.073C672.433 590.584 668.501 591.573 664.501 591.573C660.501 591.573 647.001 586.073 647.001 575.573V536.573C665.507 510.966 670.317 494.115 670.001 460.073Z" fill="white"/>
</mask>
<g mask="url(#mask2_3_11)">
<path d="M597.682 461.85C594.417 418.14 578.466 383.776 544.498 351.664C619.232 323.43 681.108 355.17 736.378 437.81C740.563 444.787 740.525 448.506 736.378 454.839L603.939 589.066C600.219 592.583 596.118 593.573 591.947 593.573C587.775 593.573 573.697 588.064 573.697 577.546V538.48C592.996 512.83 598.012 495.95 597.682 461.85Z" fill="#98B7CC"/>
</g>
<path d="M369 651.499C362.5 658.499 375 678.5 390 665.499C405 652.499 412.5 637.5 419.5 618.5C426.5 596 430.5 571.5 429.5 559C428.5 546.499 402 513.999 402 529.5C402 545 405.1 576.632 398 600.5C389.748 628.241 375.5 644.5 369 651.499Z" fill="white"/>
<path d="M655.25 651.629C661.707 658.657 649.29 678.742 634.39 665.687C619.489 652.633 612.038 637.571 605.085 618.492C598.131 595.899 594.158 571.297 595.151 558.745C596.144 546.192 622.469 513.557 622.469 529.122C622.469 544.687 619.389 576.45 626.442 600.418C634.64 628.274 648.793 644.601 655.25 651.629Z" fill="white"/>
<path d="M455 575C455 562 457 556.5 457 556.5L564.5 559L569 574.5L568 654C568.723 667.609 567.974 675.176 563.5 688.5C556.465 705.511 550.769 713.966 536.5 726.5C518.33 740.234 506.007 743.373 481 742.5C461.392 739.765 452.2 734.734 438 721.5C428.138 710.295 423.574 702.978 420.5 684.5C420.333 676.165 420.466 670.982 423.5 662.5C428.577 654.139 432 650.811 438 649C450.069 645.357 457.515 650.249 463 657.5C467.24 661.745 464.935 670.807 466.5 678.5C467.796 684.869 470.089 688.9 475.5 692.5C482.978 697.475 490.997 696.673 498.5 692.5C506.003 688.327 508.534 684.375 511 677C513.416 669.776 511.155 662.249 510.5 657.5C509.845 652.751 507.372 647.431 504.5 644C501.628 640.569 474.955 616.998 468 609.5C461.046 602.002 455 588 455 575Z" fill="white"/>
<circle cx="446.5" cy="466.5" r="22.5" fill="#04253D"/>
<circle cx="576.5" cy="466.5" r="22.5" fill="#04253D"/>
</svg>
